<svg width="646" height="480" viewBox="0 0 646 480" fill="none" xmlns="http://www.w3.org/2000/svg">
<path fill-rule="evenodd" clip-rule="evenodd" d="M323 352C386.513 352 438 300.513 438 237C438 173.487 386.513 122 323 122C259.487 122 208 173.487 208 237C208 300.513 259.487 352 323 352ZM322.5 309C361.988 309 394 276.988 394 237.5C394 198.012 361.988 166 322.5 166C283.012 166 251 198.012 251 237.5C251 276.988 283.012 309 322.5 309Z" fill="#829AF0"/>
<path d="M14.3821 310.648V274.32L105.469 130.818H136.79V181.102H118.253L60.831 271.976V273.68H190.27V310.648H14.3821ZM119.105 349V299.568L119.957 283.482V130.818H163.21V349H119.105Z" fill="white"/>
<path d="M456.382 310.648V274.32L547.469 130.818H578.79V181.102H560.253L502.831 271.976V273.68H632.27V310.648H456.382ZM561.105 349V299.568L561.957 283.482V130.818H605.21V349H561.105Z" fill="white"/>
<g clip-path="url(#clip0_677_14350)">
<path d="M394 240H251V352H394V240Z" fill="#5F5FED"/>
<path d="M394 252.682H251V352H394V252.682Z" fill="white"/>
<path d="M258.209 246.102C258.209 247.247 257.275 248.178 256.126 248.178C254.977 248.178 254.043 247.247 254.043 246.102C254.043 244.957 254.977 244.026 256.126 244.026C257.275 244.026 258.209 244.957 258.209 246.102Z" fill="white"/>
<path d="M267.084 246.102C267.084 247.247 266.15 248.178 265.001 248.178C263.852 248.178 262.918 247.247 262.918 246.102C262.918 244.957 263.852 244.026 265.001 244.026C266.15 244.026 267.084 244.957 267.084 246.102Z" fill="white"/>
<path d="M275.959 246.102C275.959 247.247 275.025 248.178 273.876 248.178C272.727 248.178 271.793 247.247 271.793 246.102C271.793 244.957 272.727 244.026 273.876 244.026C275.025 244.026 275.959 244.957 275.959 246.102Z" fill="white"/>
<path d="M344.801 249.839H285.945C283.975 249.839 282.385 248.253 282.385 246.291C282.385 244.328 283.975 242.743 285.945 242.743H344.801C346.771 242.743 348.361 244.328 348.361 246.291C348.361 248.253 346.771 249.839 344.801 249.839Z" fill="white"/>
<path d="M385.288 249.839H357.425C355.456 249.839 353.865 248.253 353.865 246.291C353.865 244.328 355.456 242.743 357.425 242.743H385.288C387.258 242.743 388.848 244.328 388.848 246.291C388.848 248.253 387.258 249.839 385.288 249.839Z" fill="white"/>
<path fill-rule="evenodd" clip-rule="evenodd" d="M322.508 270.837C321.447 270.837 320.576 271.705 320.576 272.762V284.84C320.576 285.897 321.447 286.765 322.508 286.765C323.568 286.765 324.439 285.897 324.439 284.84V272.762C324.439 271.705 323.568 270.837 322.508 270.837Z" fill="url(#paint0_linear_677_14350)"/>
<path fill-rule="evenodd" clip-rule="evenodd" d="M322.508 315.312C321.447 315.312 320.576 316.181 320.576 317.237V329.316C320.576 330.372 321.447 331.241 322.508 331.241C323.568 331.241 324.439 330.372 324.439 329.316V317.237C324.439 316.181 323.568 315.312 322.508 315.312Z" fill="url(#paint1_linear_677_14350)"/>
<path fill-rule="evenodd" clip-rule="evenodd" d="M350.876 299.108H338.756C337.695 299.108 336.824 299.976 336.824 301.033C336.824 302.089 337.695 302.958 338.756 302.958H350.876C351.936 302.958 352.807 302.089 352.807 301.033C352.807 299.976 351.936 299.108 350.876 299.108Z" fill="url(#paint2_linear_677_14350)"/>
<path fill-rule="evenodd" clip-rule="evenodd" d="M308.178 301.033C308.178 299.976 307.307 299.108 306.247 299.108H294.127C293.066 299.108 292.195 299.976 292.195 301.033C292.195 302.089 293.066 302.958 294.127 302.958H306.247C307.307 302.958 308.178 302.089 308.178 301.033Z" fill="url(#paint3_linear_677_14350)"/>
<path fill-rule="evenodd" clip-rule="evenodd" d="M335.36 311.123C334.615 310.381 333.378 310.381 332.633 311.123C331.888 311.865 331.888 313.098 332.633 313.84L341.205 322.383C341.95 323.126 343.187 323.126 343.932 322.383C344.677 321.641 344.677 320.408 343.932 319.666L335.36 311.123Z" fill="url(#paint4_linear_677_14350)"/>
<path fill-rule="evenodd" clip-rule="evenodd" d="M303.811 279.682C303.066 278.94 301.829 278.94 301.084 279.682C300.339 280.424 300.339 281.657 301.084 282.4L309.656 290.942C310.401 291.685 311.638 291.685 312.383 290.942C313.128 290.2 313.128 288.967 312.383 288.225L303.811 279.682Z" fill="url(#paint5_linear_677_14350)"/>
<path fill-rule="evenodd" clip-rule="evenodd" d="M309.643 311.123L301.07 319.666C300.326 320.408 300.326 321.641 301.07 322.383C301.815 323.126 303.052 323.126 303.797 322.383L312.369 313.84C313.114 313.098 313.114 311.865 312.369 311.123C311.625 310.381 310.387 310.381 309.643 311.123Z" fill="url(#paint6_linear_677_14350)"/>
<path fill-rule="evenodd" clip-rule="evenodd" d="M335.36 290.942L343.932 282.4C344.677 281.657 344.677 280.424 343.932 279.682C343.187 278.94 341.95 278.94 341.205 279.682L332.633 288.225C331.888 288.967 331.888 290.2 332.633 290.942C333.378 291.685 334.615 291.685 335.36 290.942Z" fill="url(#paint7_linear_677_14350)"/>
</g>
<defs>
<linearGradient id="paint0_linear_677_14350" x1="358.135" y1="257.828" x2="271.582" y2="309.118" gradientUnits="userSpaceOnUse">
<stop stop-color="#5F5FED"/>
<stop offset="1" stop-color="#504CD8" stop-opacity="0.6"/>
</linearGradient>
<linearGradient id="paint1_linear_677_14350" x1="377.678" y1="290.804" x2="291.113" y2="342.094" gradientUnits="userSpaceOnUse">
<stop stop-color="#5F5FED"/>
<stop offset="1" stop-color="#504CD8" stop-opacity="0.6"/>
</linearGradient>
<linearGradient id="paint2_linear_677_14350" x1="373.676" y1="284.06" x2="287.111" y2="335.338" gradientUnits="userSpaceOnUse">
<stop stop-color="#5F5FED"/>
<stop offset="1" stop-color="#504CD8" stop-opacity="0.6"/>
</linearGradient>
<linearGradient id="paint3_linear_677_14350" x1="362.136" y1="264.584" x2="275.571" y2="315.862" gradientUnits="userSpaceOnUse">
<stop stop-color="#5F5FED"/>
<stop offset="1" stop-color="#504CD8" stop-opacity="0.6"/>
</linearGradient>
<linearGradient id="paint4_linear_677_14350" x1="378.89" y1="292.867" x2="292.325" y2="344.145" gradientUnits="userSpaceOnUse">
<stop stop-color="#5F5FED"/>
<stop offset="1" stop-color="#504CD8" stop-opacity="0.6"/>
</linearGradient>
<linearGradient id="paint5_linear_677_14350" x1="356.923" y1="255.777" x2="270.358" y2="307.055" gradientUnits="userSpaceOnUse">
<stop stop-color="#5F5FED"/>
<stop offset="1" stop-color="#504CD8" stop-opacity="0.6"/>
</linearGradient>
<linearGradient id="paint6_linear_677_14350" x1="370.733" y1="279.103" x2="284.168" y2="330.381" gradientUnits="userSpaceOnUse">
<stop stop-color="#5F5FED"/>
<stop offset="1" stop-color="#504CD8" stop-opacity="0.6"/>
</linearGradient>
<linearGradient id="paint7_linear_677_14350" x1="365.078" y1="269.541" x2="278.513" y2="320.819" gradientUnits="userSpaceOnUse">
<stop stop-color="#5F5FED"/>
<stop offset="1" stop-color="#504CD8" stop-opacity="0.6"/>
</linearGradient>
<clipPath id="clip0_677_14350">
<rect width="143" height="112" fill="white" transform="translate(251 240)"/>
</clipPath>
</defs>
</svg>
