<svg width="83" height="10" viewBox="0 0 83 10" fill="none" xmlns="http://www.w3.org/2000/svg">
<path d="M2.26278 9H0.285511L3.2983 0.272727H5.67614L8.68466 9H6.70739L4.52131 2.26705H4.45312L2.26278 9ZM2.1392 5.5696H6.80966V7.00994H2.1392V5.5696ZM17.0252 3.32812H15.1587C15.1246 3.08665 15.055 2.87216 14.9499 2.68466C14.8448 2.49432 14.7099 2.33239 14.5451 2.19886C14.3803 2.06534 14.19 1.96307 13.9741 1.89205C13.761 1.82102 13.5295 1.78551 13.2795 1.78551C12.8278 1.78551 12.4343 1.89773 12.0991 2.12216C11.7638 2.34375 11.5039 2.66761 11.3192 3.09375C11.1346 3.51705 11.0423 4.03125 11.0423 4.63636C11.0423 5.25852 11.1346 5.78125 11.3192 6.20455C11.5067 6.62784 11.7681 6.94744 12.1033 7.16335C12.4386 7.37926 12.8263 7.48722 13.2667 7.48722C13.5138 7.48722 13.7425 7.45455 13.9528 7.3892C14.1658 7.32386 14.3548 7.22869 14.5195 7.10369C14.6843 6.97585 14.8207 6.82102 14.9286 6.6392C15.0394 6.45739 15.1161 6.25 15.1587 6.01705L17.0252 6.02557C16.9769 6.42614 16.8562 6.8125 16.663 7.18466C16.4727 7.55398 16.2156 7.88494 15.8917 8.17756C15.5707 8.46733 15.1871 8.69744 14.7411 8.8679C14.2979 9.03551 13.7965 9.11932 13.2369 9.11932C12.4585 9.11932 11.7624 8.94318 11.1488 8.59091C10.538 8.23864 10.055 7.72869 9.69993 7.06108C9.34766 6.39347 9.17152 5.58523 9.17152 4.63636C9.17152 3.68466 9.3505 2.875 9.70845 2.20739C10.0664 1.53977 10.5522 1.03125 11.1658 0.681818C11.7795 0.329545 12.4698 0.153409 13.2369 0.153409C13.7425 0.153409 14.2113 0.224432 14.6431 0.366477C15.0778 0.508523 15.4627 0.715909 15.7979 0.988636C16.1332 1.25852 16.4059 1.58949 16.6161 1.98153C16.8292 2.37358 16.9656 2.82244 17.0252 3.32812ZM26.0487 3.32812H24.1822C24.1481 3.08665 24.0785 2.87216 23.9734 2.68466C23.8683 2.49432 23.7333 2.33239 23.5685 2.19886C23.4038 2.06534 23.2134 1.96307 22.9975 1.89205C22.7844 1.82102 22.5529 1.78551 22.3029 1.78551C21.8512 1.78551 21.4577 1.89773 21.1225 2.12216C20.7873 2.34375 20.5273 2.66761 20.3427 3.09375C20.158 3.51705 20.0657 4.03125 20.0657 4.63636C20.0657 5.25852 20.158 5.78125 20.3427 6.20455C20.5302 6.62784 20.7915 6.94744 21.1268 7.16335C21.462 7.37926 21.8498 7.48722 22.2901 7.48722C22.5373 7.48722 22.766 7.45455 22.9762 7.3892C23.1893 7.32386 23.3782 7.22869 23.543 7.10369C23.7077 6.97585 23.8441 6.82102 23.9521 6.6392C24.0629 6.45739 24.1396 6.25 24.1822 6.01705L26.0487 6.02557C26.0004 6.42614 25.8796 6.8125 25.6864 7.18466C25.4961 7.55398 25.239 7.88494 24.9151 8.17756C24.5941 8.46733 24.2106 8.69744 23.7646 8.8679C23.3214 9.03551 22.82 9.11932 22.2603 9.11932C21.4819 9.11932 20.7859 8.94318 20.1722 8.59091C19.5614 8.23864 19.0785 7.72869 18.7234 7.06108C18.3711 6.39347 18.195 5.58523 18.195 4.63636C18.195 3.68466 18.3739 2.875 18.7319 2.20739C19.0898 1.53977 19.5756 1.03125 20.1893 0.681818C20.8029 0.329545 21.4933 0.153409 22.2603 0.153409C22.766 0.153409 23.2347 0.224432 23.6665 0.366477C24.1012 0.508523 24.4862 0.715909 24.8214 0.988636C25.1566 1.25852 25.4293 1.58949 25.6396 1.98153C25.8526 2.37358 25.989 2.82244 26.0487 3.32812ZM35.3917 4.63636C35.3917 5.58807 35.2113 6.39773 34.8505 7.06534C34.4925 7.73295 34.0039 8.2429 33.3846 8.59517C32.7681 8.9446 32.0749 9.11932 31.305 9.11932C30.5295 9.11932 29.8335 8.94318 29.217 8.59091C28.6005 8.23864 28.1133 7.72869 27.7553 7.06108C27.3974 6.39347 27.2184 5.58523 27.2184 4.63636C27.2184 3.68466 27.3974 2.875 27.7553 2.20739C28.1133 1.53977 28.6005 1.03125 29.217 0.681818C29.8335 0.329545 30.5295 0.153409 31.305 0.153409C32.0749 0.153409 32.7681 0.329545 33.3846 0.681818C34.0039 1.03125 34.4925 1.53977 34.8505 2.20739C35.2113 2.875 35.3917 3.68466 35.3917 4.63636ZM33.521 4.63636C33.521 4.01989 33.4286 3.5 33.244 3.0767C33.0621 2.65341 32.805 2.33239 32.4727 2.11364C32.1403 1.89489 31.7511 1.78551 31.305 1.78551C30.859 1.78551 30.4698 1.89489 30.1374 2.11364C29.805 2.33239 29.5465 2.65341 29.3619 3.0767C29.18 3.5 29.0891 4.01989 29.0891 4.63636C29.0891 5.25284 29.18 5.77273 29.3619 6.19602C29.5465 6.61932 29.805 6.94034 30.1374 7.15909C30.4698 7.37784 30.859 7.48722 31.305 7.48722C31.7511 7.48722 32.1403 7.37784 32.4727 7.15909C32.805 6.94034 33.0621 6.61932 33.244 6.19602C33.4286 5.77273 33.521 5.25284 33.521 4.63636ZM42.1491 0.272727H43.9943V5.94034C43.9943 6.5767 43.8423 7.13352 43.5384 7.6108C43.2372 8.08807 42.8153 8.46023 42.2727 8.72727C41.7301 8.99148 41.098 9.12358 40.3764 9.12358C39.652 9.12358 39.0185 8.99148 38.4759 8.72727C37.9332 8.46023 37.5114 8.08807 37.2102 7.6108C36.9091 7.13352 36.7585 6.5767 36.7585 5.94034V0.272727H38.6037V5.78267C38.6037 6.11506 38.6761 6.41051 38.821 6.66903C38.9688 6.92756 39.1761 7.13068 39.4432 7.27841C39.7102 7.42614 40.0213 7.5 40.3764 7.5C40.7344 7.5 41.0455 7.42614 41.3097 7.27841C41.5767 7.13068 41.7827 6.92756 41.9276 6.66903C42.0753 6.41051 42.1491 6.11506 42.1491 5.78267V0.272727ZM52.8121 0.272727V9H51.2184L47.4215 3.5071H47.3576V9H45.5124V0.272727H47.1317L50.8988 5.76136H50.9755V0.272727H52.8121ZM54.0043 1.79403V0.272727H61.1719V1.79403H58.5V9H56.6761V1.79403H54.0043ZM64.1974 0.272727V9H62.3523V0.272727H64.1974ZM73.0153 0.272727V9H71.4215L67.6246 3.5071H67.5607V9H65.7156V0.272727H67.3349L71.1019 5.76136H71.1786V0.272727H73.0153ZM80.3267 3.09375C80.267 2.88636 80.1832 2.70312 80.0753 2.54403C79.9673 2.3821 79.8352 2.24574 79.679 2.13494C79.5256 2.02131 79.3494 1.93466 79.1506 1.875C78.9545 1.81534 78.7372 1.78551 78.4986 1.78551C78.0526 1.78551 77.6605 1.89631 77.3224 2.1179C76.9872 2.33949 76.7259 2.66193 76.5384 3.08523C76.3509 3.50568 76.2571 4.01989 76.2571 4.62784C76.2571 5.2358 76.3494 5.75284 76.5341 6.17898C76.7188 6.60511 76.9801 6.9304 77.3182 7.15483C77.6562 7.37642 78.0554 7.48722 78.5156 7.48722C78.9332 7.48722 79.2898 7.41335 79.5852 7.26562C79.8835 7.11506 80.1108 6.90341 80.267 6.63068C80.4261 6.35795 80.5057 6.03551 80.5057 5.66335L80.8807 5.71875H78.6307V4.32955H82.2827V5.42898C82.2827 6.19602 82.1207 6.85511 81.7969 7.40625C81.473 7.95455 81.027 8.37784 80.4588 8.67614C79.8906 8.97159 79.2401 9.11932 78.5071 9.11932C77.6889 9.11932 76.9702 8.93892 76.3509 8.57812C75.7315 8.21449 75.2486 7.69886 74.902 7.03125C74.5582 6.3608 74.3864 5.56534 74.3864 4.64489C74.3864 3.9375 74.4886 3.30682 74.6932 2.75284C74.9006 2.19602 75.1903 1.72443 75.5625 1.33807C75.9347 0.951704 76.3679 0.65767 76.8622 0.455966C77.3565 0.254261 77.892 0.153409 78.4688 0.153409C78.9631 0.153409 79.4233 0.225852 79.8494 0.370739C80.2756 0.512784 80.6534 0.714489 80.983 0.975852C81.3153 1.23722 81.5866 1.5483 81.7969 1.90909C82.0071 2.26705 82.142 2.66193 82.2017 3.09375H80.3267Z" fill="#040738"/>
</svg>
