<svg width="248" height="103" viewBox="0 0 248 103" fill="none" xmlns="http://www.w3.org/2000/svg">
<path d="M222.35 1.59703C223.296 0.578626 224.623 0 226.013 0L236.53 0C240.897 0 243.165 5.20411 240.194 8.40308L203.494 47.9077C201.712 49.8263 201.712 52.7952 203.494 54.7139L240.194 94.2185C243.165 97.4174 240.897 102.622 236.53 102.622H226.013C224.623 102.622 223.296 102.043 222.35 101.025L179.33 54.7137C177.548 52.7951 177.548 49.8264 179.33 47.9078L222.35 1.59703Z" fill="white" fill-opacity="0.2"/>
<path d="M163.627 1.59703C164.573 0.578626 165.9 0 167.29 0L177.808 0C182.174 0 184.443 5.20411 181.471 8.40308L144.772 47.9077C142.989 49.8263 142.989 52.7952 144.772 54.7139L181.471 94.2185C184.443 97.4174 182.174 102.622 177.808 102.622H167.29C165.9 102.622 164.573 102.043 163.627 101.025L120.607 54.7137C118.825 52.7951 118.825 49.8264 120.607 47.9078L163.627 1.59703Z" fill="white" fill-opacity="0.2"/>
<path d="M104.905 1.59692C105.851 0.578588 107.179 0 108.569 0L119.084 0C123.45 0 125.719 5.20397 122.747 8.40298L86.0494 47.9078C84.2672 49.8264 84.2671 52.7951 86.0494 54.7137L122.747 94.2186C125.719 97.4176 123.45 102.622 119.084 102.622H108.569C107.179 102.622 105.851 102.043 104.905 101.025L61.8831 54.7139C60.1007 52.7952 60.1007 49.8263 61.8831 47.9077L104.905 1.59692Z" fill="white" fill-opacity="0.2"/>
<path d="M46.1827 1.59692C47.1287 0.578588 48.4559 0 49.8459 0L60.361 0C64.7273 0 66.9959 5.20396 64.0243 8.40297L27.3268 47.9078C25.5446 49.8264 25.5446 52.7951 27.3268 54.7137L64.0243 94.2186C66.9959 97.4176 64.7272 102.622 60.361 102.622H49.8459C48.4559 102.622 47.1287 102.043 46.1827 101.025L3.1604 54.7139C1.37801 52.7952 1.37801 49.8263 3.1604 47.9077L46.1827 1.59692Z" fill="white" fill-opacity="0.2"/>
</svg>
