<svg width="103" height="190" viewBox="0 0 103 190" fill="none" xmlns="http://www.w3.org/2000/svg">
<path d="M1.59703 25.6502C0.578626 24.7041 0 23.3769 0 21.9869L0 11.4696C0 7.10323 5.20411 4.83457 8.40308 7.80639L47.9077 44.5058C49.8263 46.2882 52.7952 46.2882 54.7139 44.5058L94.2185 7.80639C97.4174 4.83457 102.622 7.10323 102.622 11.4696V21.9869C102.622 23.3769 102.043 24.7041 101.025 25.6502L54.7137 68.6699C52.7951 70.4522 49.8264 70.4522 47.9078 68.6699L1.59703 25.6502Z" fill="white" fill-opacity="0.2"/>
<path d="M1.59703 84.3731C0.578626 83.427 0 82.0998 0 80.7098L0 70.1925C0 65.8261 5.20411 63.5575 8.40308 66.5293L47.9077 103.229C49.8263 105.011 52.7952 105.011 54.7139 103.229L94.2185 66.5293C97.4174 63.5575 102.622 65.8261 102.622 70.1925V80.7098C102.622 82.0998 102.043 83.427 101.025 84.3731L54.7137 127.393C52.7951 129.175 49.8264 129.175 47.9078 127.393L1.59703 84.3731Z" fill="white" fill-opacity="0.2"/>
<path d="M1.59692 143.095C0.578588 142.149 0 140.821 0 139.431L0 128.916C0 124.55 5.20397 122.281 8.40298 125.253L47.9078 161.951C49.8264 163.733 52.7951 163.733 54.7137 161.951L94.2186 125.253C97.4176 122.281 102.622 124.55 102.622 128.916V139.431C102.622 140.821 102.043 142.149 101.025 143.095L54.7139 186.117C52.7952 187.899 49.8263 187.899 47.9077 186.117L1.59692 143.095Z" fill="white" fill-opacity="0.2"/>
</svg>
