<svg width="248" height="103" viewBox="0 0 248 103" fill="none" xmlns="http://www.w3.org/2000/svg">
<path d="M222.35 1.59703C223.296 0.578626 224.623 0 226.013 0L236.53 0C240.897 0 243.165 5.20411 240.194 8.40308L203.494 47.9077C201.712 49.8263 201.712 52.7952 203.494 54.7139L240.194 94.2185C243.165 97.4174 240.897 102.622 236.53 102.622H226.013C224.623 102.622 223.296 102.043 222.35 101.025L179.33 54.7137C177.548 52.7951 177.548 49.8264 179.33 47.9078L222.35 1.59703Z" fill="#E1E3ED"/>
<path d="M163.627 1.59703C164.573 0.578626 165.9 0 167.29 0L177.808 0C182.174 0 184.443 5.20411 181.471 8.40308L144.771 47.9077C142.989 49.8263 142.989 52.7952 144.771 54.7139L181.471 94.2185C184.443 97.4174 182.174 102.622 177.808 102.622H167.29C165.9 102.622 164.573 102.043 163.627 101.025L120.607 54.7137C118.825 52.7951 118.825 49.8264 120.607 47.9078L163.627 1.59703Z" fill="#E1E3ED"/>
<path d="M104.906 1.59692C105.852 0.578588 107.179 0 108.569 0L119.084 0C123.451 0 125.719 5.20397 122.748 8.40298L86.0503 47.9078C84.268 49.8264 84.268 52.7951 86.0503 54.7137L122.748 94.2186C125.719 97.4176 123.451 102.622 119.084 102.622H108.569C107.179 102.622 105.852 102.043 104.906 101.025L61.8839 54.7139C60.1015 52.7952 60.1015 49.8263 61.8839 47.9077L104.906 1.59692Z" fill="#E1E3ED"/>
<path d="M46.1834 1.59692C47.1294 0.578588 48.4567 0 49.8466 0L60.3617 0C64.728 0 66.9967 5.20396 64.025 8.40297L27.3276 47.9078C25.5453 49.8264 25.5453 52.7951 27.3276 54.7137L64.025 94.2186C66.9967 97.4176 64.728 102.622 60.3617 102.622H49.8466C48.4567 102.622 47.1294 102.043 46.1834 101.025L3.16113 54.7139C1.37874 52.7952 1.37874 49.8263 3.16113 47.9077L46.1834 1.59692Z" fill="#E1E3ED"/>
</svg>
