<svg width="237" height="97" viewBox="0 0 237 97" fill="none" xmlns="http://www.w3.org/2000/svg">
<path d="M24.4389 1.58797C23.4933 0.575058 22.1698 0 20.7841 0L11.5084 0C7.13619 0 4.86994 5.21622 7.85369 8.41214L42.0946 45.0879C43.8883 47.009 43.8883 49.991 42.0946 51.9121L7.85369 88.5879C4.86994 91.7838 7.13619 97 11.5085 97H20.7841C22.1698 97 23.4933 96.4249 24.4389 95.412L65.0487 51.912C66.8422 49.9909 66.8422 47.0091 65.0487 45.088L24.4389 1.58797Z" fill="#E1E3ED"/>
<path d="M80.6948 1.58797C79.7492 0.575058 78.4256 0 77.0399 0L67.7643 0C63.3921 0 61.1258 5.21622 64.1095 8.41214L98.3505 45.0879C100.144 47.009 100.144 49.991 98.3505 51.9121L64.1095 88.5879C61.1258 91.7838 63.3921 97 67.7643 97H77.0399C78.4256 97 79.7492 96.4249 80.6948 95.412L121.305 51.912C123.098 49.9909 123.098 47.0091 121.305 45.088L80.6948 1.58797Z" fill="#E1E3ED"/>
<path d="M136.948 1.58786C136.002 0.575018 134.679 0 133.293 0L124.02 0C119.648 0 117.381 5.21608 120.365 8.41203L154.604 45.088C156.398 47.0091 156.398 49.9909 154.604 51.912L120.365 88.588C117.381 91.7839 119.648 97 124.02 97H133.293C134.679 97 136.002 96.425 136.948 95.4121L177.56 51.9121C179.354 49.9909 179.354 47.009 177.56 45.0879L136.948 1.58786Z" fill="#E1E3ED"/>
<path d="M193.202 1.58786C192.256 0.575018 190.933 0 189.547 0L180.274 0C175.901 0 173.635 5.21608 176.619 8.41203L210.858 45.088C212.651 47.0091 212.651 49.9909 210.858 51.912L176.619 88.588C173.635 91.7839 175.901 97 180.274 97H189.547C190.933 97 192.256 96.425 193.202 95.4121L233.814 51.9121C235.608 49.9909 235.608 47.009 233.814 45.0879L193.202 1.58786Z" fill="#E1E3ED"/>
</svg>
