<svg width="1920" height="943" viewBox="0 0 1920 943" fill="none" xmlns="http://www.w3.org/2000/svg">
<g opacity="0.4">
<path d="M971.371 -553.787C1343.13 -635.528 1714.92 -329.736 1701.64 64.5813C1695.34 251.41 1607.15 430.457 1476.25 561.17C1345.36 691.884 1174.4 776.338 996.229 819.372C662.303 899.986 252.6 836.319 -27.9502 618.642" stroke="#D3DAE3" stroke-width="1.3" stroke-miterlimit="10"/>
<path d="M971.371 -555.783C1343.44 -636.654 1713.05 -332.807 1707.65 60.2295C1705.02 251.666 1619.41 437.983 1486.6 574.508C1353.78 711.033 1178.09 799.89 994.488 845.253C661.304 926.559 253.855 865.554 -27.9502 653.51" stroke="#D3DAE3" stroke-width="1.3" stroke-miterlimit="10"/>
<path d="M971.372 -557.754C1343.75 -637.754 1711.47 -335.777 1713.67 55.9289C1714.77 252.05 1631.67 445.561 1496.94 587.871C1362.21 730.207 1181.88 823.98 992.748 871.186C660.511 954.105 255.109 894.815 -27.9756 688.454" stroke="#D3DAE3" stroke-width="1.3" stroke-miterlimit="10"/>
<path d="M971.372 -559.751C1344.06 -638.881 1710.16 -338.695 1719.71 51.5769C1724.63 252.434 1643.96 453.062 1507.28 601.209C1370.6 749.33 1185.62 847.762 991.007 897.068C659.589 981.036 256.338 924.025 -27.9756 723.346" stroke="#D3DAE3" stroke-miterlimit="10"/>
<path d="M971.372 -561.722C1344.34 -639.982 1709.11 -341.511 1725.73 47.276C1734.51 252.921 1656.22 460.639 1517.62 614.572C1379.03 768.505 1189.36 871.57 989.266 923.001C658.668 1007.99 257.592 953.286 -27.9756 758.265" stroke="#D3DAE3" stroke-width="1.3" stroke-miterlimit="10"/>
<path d="M971.372 -563.72C1344.65 -641.108 1708.32 -344.328 1731.74 42.9235C1744.47 253.381 1668.49 468.165 1527.97 627.909C1387.45 787.653 1193.09 895.301 987.525 948.882C657.746 1034.85 258.847 982.495 -27.9756 793.157" stroke="#D3DAE3" stroke-miterlimit="10"/>
<path d="M971.372 -565.716C1344.95 -642.234 1707.76 -347.092 1737.76 38.5721C1754.53 253.868 1680.77 475.692 1538.31 641.222C1395.85 806.751 1196.83 919.033 985.784 974.764C656.799 1061.65 260.101 1011.71 -27.9756 828.051" stroke="#D3DAE3" stroke-width="1.3" stroke-miterlimit="10"/>
<path d="M971.371 -567.688C1345.26 -643.336 1707.4 -349.806 1743.8 34.2709C1764.66 254.457 1693.06 483.244 1548.68 654.585C1404.29 825.925 1200.59 942.764 984.095 1000.67C655.903 1088.45 261.407 1040.94 -27.9502 862.943" stroke="#D3DAE3" stroke-width="1.3" stroke-miterlimit="10"/>
<path d="M971.372 -569.684C1345.54 -644.462 1707.22 -352.545 1749.82 29.9191C1774.88 254.994 1705.32 490.77 1558.99 667.922C1412.69 845.074 1204.28 966.47 982.328 1026.58C654.93 1115.23 262.636 1070.18 -27.9756 897.861" stroke="#D3DAE3" stroke-width="1.3" stroke-miterlimit="10"/>
<path d="M971.372 -571.655C1345.85 -645.562 1707.27 -355.233 1755.83 25.6184C1785.17 255.583 1717.59 498.348 1569.34 681.286C1421.09 864.223 1208.02 990.201 980.588 1052.49C653.957 1141.96 263.89 1099.41 -27.9756 932.78" stroke="#D3DAE3" stroke-width="1.3" stroke-miterlimit="10"/>
<path d="M971.372 -573.652C1346.16 -646.689 1707.47 -357.946 1761.85 21.2665C1795.54 256.146 1729.85 505.874 1579.68 694.623C1429.51 883.372 1211.73 1013.88 978.847 1078.39C652.984 1168.68 265.119 1128.67 -27.9756 967.673" stroke="#D3DAE3" stroke-width="1.3" stroke-miterlimit="10"/>
<path d="M971.371 -575.623C1346.46 -647.789 1707.86 -360.634 1767.89 16.9657C1806.01 256.735 1742.14 513.426 1590.05 707.986C1437.96 902.546 1215.47 1037.56 977.131 1104.3C652.037 1195.36 266.399 1157.91 -27.9502 1002.59" stroke="#D3DAE3" stroke-width="1.3" stroke-miterlimit="10"/>
<path d="M971.372 -577.621C1346.74 -648.891 1708.4 -363.349 1773.91 12.6131C1816.53 257.298 1754.4 520.952 1600.39 721.324C1446.38 921.669 1219.18 1061.21 975.391 1130.21C651.039 1222.01 267.653 1187.14 -27.9756 1037.51" stroke="#D3DAE3" stroke-width="1.3" stroke-miterlimit="10"/>
<path d="M971.372 -579.591C1347.05 -649.991 1709.09 -366.087 1779.92 8.31271C1827.15 257.887 1766.66 528.53 1610.73 734.687C1454.78 940.844 1222.89 1084.87 973.65 1156.14C650.04 1248.68 268.908 1216.4 -27.9756 1072.43" stroke="#D3DAE3" stroke-width="1.3" stroke-miterlimit="10"/>
<path d="M971.373 -581.588C1347.36 -651.118 1709.88 -368.827 1785.94 3.96049C1837.86 258.424 1778.92 536.056 1621.05 748.024C1463.17 959.992 1226.58 1108.47 971.885 1182.02C649.017 1275.26 270.137 1245.61 -28.0002 1107.32" stroke="#D3DAE3" stroke-width="1.3" stroke-miterlimit="10"/>
<path d="M971.371 -583.585C1347.67 -652.244 1710.83 -371.617 1791.98 -0.365897C1848.66 258.988 1791.21 543.608 1631.42 761.362C1471.62 979.141 1230.29 1132.08 970.194 1207.93C648.069 1301.85 271.442 1274.85 -27.9502 1142.24" stroke="#D3DAE3" stroke-width="1.3" stroke-miterlimit="10"/>
<path d="M971.371 -585.556C1347.95 -653.345 1711.9 -374.407 1798 -4.69209C1859.54 259.5 1803.5 551.135 1641.76 774.725C1480.02 998.29 1233.98 1155.68 968.453 1233.84C647.071 1328.43 272.696 1304.08 -27.9502 1177.13" stroke="#D3DAE3" stroke-width="1.3" stroke-miterlimit="10"/>
<path d="M971.372 -587.553C1348.25 -654.471 1713.05 -377.249 1804.01 -9.01829C1870.47 260.012 1815.76 558.687 1652.1 788.063C1488.44 1017.44 1237.66 1179.26 966.712 1259.74C646.047 1354.98 273.925 1333.32 -27.9756 1212.05" stroke="#D3DAE3" stroke-width="1.3" stroke-miterlimit="10"/>
<path d="M971.371 -589.524C1348.56 -655.572 1714.33 -380.09 1810.05 -13.3449C1881.53 260.498 1828.05 566.239 1662.47 801.401C1496.89 1036.59 1241.37 1202.81 964.997 1285.62C645.048 1381.5 275.205 1362.55 -27.9502 1246.94" stroke="#D3DAE3" stroke-width="1.3" stroke-miterlimit="10"/>
<path d="M971.372 -591.521C1348.87 -656.699 1715.69 -382.983 1816.07 -17.6715C1892.64 260.959 1840.31 573.791 1672.79 814.764C1505.29 1055.74 1245.04 1226.39 963.231 1311.56C643.999 1408.04 276.434 1391.81 -27.9756 1281.86" stroke="#D3DAE3" stroke-width="1.3" stroke-miterlimit="10"/>
<path d="M971.372 -593.492C1349.15 -657.799 1717.13 -385.902 1822.09 -21.9979C1903.83 261.369 1852.57 581.317 1683.13 828.101C1513.68 1074.89 1248.72 1249.89 961.49 1337.44C642.975 1434.51 277.688 1421.02 -27.9756 1316.75" stroke="#D3DAE3" stroke-width="1.3" stroke-miterlimit="10"/>
<path d="M971.372 -595.489C1349.46 -658.926 1718.64 -388.897 1828.1 -26.3241C1915.09 261.753 1864.84 588.87 1693.47 841.465C1522.1 1094.06 1252.38 1273.44 959.749 1363.37C641.951 1461.04 278.943 1450.28 -27.9756 1351.7" stroke="#D3DAE3" stroke-width="1.3" stroke-miterlimit="10"/>
<path d="M971.372 -597.46C1349.77 -660.026 1720.25 -391.866 1834.14 -30.6504C1926.46 262.111 1877.13 596.422 1703.84 854.802C1530.55 1113.18 1256.07 1296.91 958.034 1389.25C640.927 1487.51 280.223 1479.49 -27.9756 1386.57" stroke="#D3DAE3" stroke-width="1.3" stroke-miterlimit="10"/>
<path d="M971.371 -599.457C1350.07 -661.153 1721.91 -394.939 1840.16 -34.9771C1937.87 262.444 1889.39 603.973 1714.18 868.165C1538.95 1132.36 1259.73 1320.41 956.319 1415.19C639.903 1514 281.503 1508.75 -27.9502 1421.51" stroke="#D3DAE3" stroke-width="1.3" stroke-miterlimit="10"/>
<path d="M971.372 -601.454C1350.35 -662.279 1723.63 -398.036 1846.17 -39.3288C1949.37 262.7 1901.65 611.474 1724.5 881.478C1547.35 1151.48 1263.37 1343.86 954.552 1441.04C638.828 1540.4 282.732 1537.94 -27.9756 1456.38" stroke="#D3DAE3" stroke-width="1.3" stroke-miterlimit="10"/>
<path d="M971.372 -603.425C1350.66 -663.38 1725.42 -401.16 1852.19 -43.6299C1960.91 262.956 1913.91 619.052 1734.84 894.866C1555.77 1170.65 1267 1367.37 952.812 1467C637.778 1566.89 283.96 1567.22 -27.9756 1491.32" stroke="#D3DAE3" stroke-width="1.3" stroke-miterlimit="10"/>
<path d="M971.371 -605.422C1350.97 -664.506 1727.24 -404.334 1858.23 -47.9816C1972.59 263.135 1926.23 626.578 1745.21 908.178C1564.19 1189.78 1270.69 1390.76 951.096 1492.86C636.754 1593.29 285.24 1596.41 -27.9502 1526.19" stroke="#D3DAE3" stroke-width="1.3" stroke-miterlimit="10"/>
<path d="M971.372 -607.393C1351.28 -665.608 1729.11 -407.534 1864.25 -52.2827C1984.29 263.314 1938.49 634.156 1755.55 921.567C1572.61 1208.98 1274.32 1414.21 949.356 1518.81C635.704 1619.76 286.495 1625.72 -27.9756 1561.16" stroke="#D3DAE3" stroke-width="1.3" stroke-miterlimit="10"/>
<path d="M971.372 -609.39C1351.58 -666.734 1731.03 -410.811 1870.26 -56.6345C1996.06 263.391 1950.75 641.682 1765.89 934.879C1581.04 1228.1 1277.96 1437.59 947.615 1544.67C634.629 1646.12 287.749 1654.9 -27.9756 1596.02" stroke="#D3DAE3" stroke-width="1.3" stroke-miterlimit="10"/>
<path d="M971.373 -611.361C1351.87 -667.834 1733 -414.087 1876.28 -60.9351C2007.92 263.468 1963.01 649.234 1776.21 948.268C1589.43 1247.28 1281.54 1461.04 945.849 1570.63C633.555 1672.59 288.979 1684.19 -28.0002 1630.97" stroke="#D3DAE3" stroke-width="1.3" stroke-miterlimit="10"/>
<path d="M971.371 -613.358C1352.17 -668.961 1734.99 -417.441 1882.32 -65.2876C2019.84 263.468 1975.3 656.761 1786.58 961.58C1597.85 1266.4 1285.2 1484.36 944.159 1596.49C632.53 1698.94 290.283 1713.38 -27.9502 1665.84" stroke="#D3DAE3" stroke-width="1.3" stroke-miterlimit="10"/>
<path d="M971.371 -615.329C1352.48 -670.062 1737.02 -420.82 1888.34 -69.614C2031.83 263.416 1987.56 664.313 1796.92 974.917C1606.28 1285.55 1288.81 1507.7 942.418 1622.39C631.455 1725.33 291.538 1742.61 -27.9502 1700.75" stroke="#D3DAE3" stroke-width="1.3" stroke-miterlimit="10"/>
<path d="M971.372 -617.326C1352.79 -671.163 1739.06 -424.276 1894.35 -73.9401C2043.86 263.34 1999.83 671.865 1807.26 988.281C1614.7 1304.7 1292.42 1531.08 940.677 1648.3C630.38 1751.72 292.767 1771.85 -27.9756 1735.65" stroke="#D3DAE3" stroke-width="1.3" stroke-miterlimit="10"/>
<path d="M971.371 -619.297C1353.07 -672.264 1741.16 -427.732 1900.4 -78.2668C2055.97 263.212 2012.11 679.391 1817.63 1001.62C1623.12 1323.85 1296.03 1554.4 938.962 1674.21C629.33 1778.09 294.047 1801.08 -27.9502 1770.57" stroke="#D3DAE3" stroke-width="1.3" stroke-miterlimit="10"/>
<path d="M971.372 -621.294C1353.37 -673.39 1743.26 -431.265 1906.41 -82.593C2068.13 263.007 2024.38 686.943 1827.95 1014.98C1631.52 1343.02 1299.44 1577.18 937.196 1700.11C628.05 1804.02 295.276 1830.32 -27.9756 1805.48" stroke="#D3DAE3" stroke-width="1.3" stroke-miterlimit="10"/>
<path d="M971.372 -623.29C1353.68 -674.516 1745.39 -434.849 1912.43 -86.9448C2080.34 262.751 2036.64 694.47 1838.29 1028.29C1639.94 1362.12 1303.1 1600.71 935.455 1726C627.052 1830.57 296.53 1859.55 -27.9756 1840.35" stroke="#D3DAE3" stroke-width="1.3" stroke-miterlimit="10"/>
<path d="M971.372 -625.262C1353.99 -675.617 1747.51 -438.433 1918.44 -91.2458C2092.6 262.495 2048.93 702.047 1848.63 1041.68C1648.34 1381.32 1306.78 1624.29 933.714 1751.93C626.028 1857.2 297.784 1888.81 -27.9756 1875.29" stroke="#D3DAE3" stroke-width="1.3" stroke-miterlimit="10"/>
</g>
</svg>
