<svg width="248" height="103" viewBox="0 0 248 103" fill="none" xmlns="http://www.w3.org/2000/svg">
<path d="M25.6502 1.59703C24.7041 0.578626 23.3769 0 21.9869 0L11.4696 0C7.10323 0 4.83457 5.20411 7.80639 8.40308L44.5058 47.9077C46.2882 49.8263 46.2882 52.7952 44.5058 54.7139L7.80639 94.2185C4.83457 97.4174 7.10323 102.622 11.4696 102.622H21.9869C23.3769 102.622 24.7041 102.043 25.6502 101.025L68.6699 54.7137C70.4522 52.7951 70.4522 49.8264 68.6699 47.9078L25.6502 1.59703Z" fill="#F1F3F8" fill-opacity="0.2"/>
<path d="M84.373 1.59703C83.4269 0.578626 82.0997 0 80.7097 0L70.1924 0C65.826 0 63.5574 5.20411 66.5292 8.40308L103.229 47.9077C105.011 49.8263 105.011 52.7952 103.229 54.7139L66.5292 94.2185C63.5574 97.4174 65.826 102.622 70.1924 102.622H80.7097C82.0997 102.622 83.4269 102.043 84.373 101.025L127.393 54.7137C129.175 52.7951 129.175 49.8264 127.393 47.9078L84.373 1.59703Z" fill="#F1F3F8" fill-opacity="0.2"/>
<path d="M143.094 1.59692C142.148 0.578588 140.821 0 139.431 0L128.916 0C124.549 0 122.281 5.20397 125.252 8.40298L161.95 47.9078C163.732 49.8264 163.732 52.7951 161.95 54.7137L125.252 94.2186C122.281 97.4176 124.549 102.622 128.916 102.622H139.431C140.821 102.622 142.148 102.043 143.094 101.025L186.116 54.7139C187.898 52.7952 187.898 49.8263 186.116 47.9077L143.094 1.59692Z" fill="#F1F3F8" fill-opacity="0.2"/>
<path d="M201.817 1.59692C200.871 0.578588 199.543 0 198.153 0L187.638 0C183.272 0 181.003 5.20396 183.975 8.40297L220.672 47.9078C222.455 49.8264 222.455 52.7951 220.672 54.7137L183.975 94.2186C181.003 97.4176 183.272 102.622 187.638 102.622H198.153C199.543 102.622 200.871 102.043 201.817 101.025L244.839 54.7139C246.621 52.7952 246.621 49.8263 244.839 47.9077L201.817 1.59692Z" fill="#F1F3F8" fill-opacity="0.2"/>
</svg>
