<svg width="120" height="120" viewBox="0 0 120 120" fill="none" xmlns="http://www.w3.org/2000/svg">
<g clip-path="url(#clip0_1183_824)">
<path d="M120 60C120 76.7879 113.105 91.9644 101.993 102.854C101.924 102.922 101.853 102.99 101.783 103.058C100.871 103.942 99.932 104.799 98.9642 105.625C97.0573 107.259 95.0458 108.772 92.9427 110.156C83.4868 116.38 72.1658 120 60 120C47.8342 120 36.5132 116.38 27.0573 110.156C24.9542 108.772 22.9427 107.259 21.0358 105.625C20.068 104.799 19.129 103.942 18.2174 103.058C18.1467 102.99 18.0761 102.922 18.0068 102.854C6.89642 91.9644 0 76.7879 0 60C0 26.8624 26.8624 0 60 0C93.1376 0 120 26.8624 120 60Z" fill="#F1F3F8"/>
<path d="M101.784 103.058C100.872 103.942 99.9334 104.799 98.9656 105.625C97.0587 107.259 95.0472 108.772 92.9441 110.156C83.4882 116.38 72.1672 120 60.0014 120C47.8355 120 36.5146 116.38 27.0587 110.156C24.9556 108.772 22.9441 107.259 21.0372 105.625C20.0694 104.799 19.1303 103.942 18.2188 103.058C20.4801 96.0502 26.0098 90.3701 33.3038 88.0683L51.0634 82.4601V79.5318C48.8374 78.2095 46.8481 76.6976 45.208 75.5898C42.1568 73.5312 40.1034 70.3047 39.4965 66.6754L38.5496 61.0097C35.5834 61.0097 33.1861 58.6123 33.1861 55.6461C33.1861 53.441 34.5096 51.5498 36.4087 50.7272C34.7503 46.8389 33.5339 42.7178 32.8028 38.492C32.3385 35.8148 32.077 32.9911 32.863 30.4094C33.6477 27.8276 35.7272 25.5624 38.1808 25.5179L38.5026 25.5402C40.0511 23.1219 42.4706 21.5289 45.0105 20.6082C47.5504 19.6861 50.2316 19.3735 52.8879 19.0675C53.9263 18.9485 54.97 18.8268 56.0163 18.7222C60.841 18.2579 66.0948 18.1454 71.0281 19.5187C75.9627 20.8933 80.7299 23.9746 83.2423 28.887C85.2381 32.7845 85.6422 37.4863 85.14 41.9343C84.8078 44.8862 84.1003 47.7596 83.2698 50.5964C85.3401 51.3379 86.8167 53.3168 86.8167 55.6461C86.8167 58.6123 84.422 61.0097 81.4531 61.0097L80.5062 66.6754C79.8994 70.3047 77.8473 73.5312 74.796 75.5898C73.1534 76.6976 71.1667 78.2095 68.9407 79.5318V82.4601L86.699 88.0683C93.9943 90.3714 99.524 96.0515 101.787 103.058H101.784Z" fill="#D3DAE3"/>
</g>
<defs>
<clipPath id="clip0_1183_824">
<rect width="120" height="120" rx="60" fill="white"/>
</clipPath>
</defs>
</svg>
